<?xml version="1.0" encoding="utf-8"?>
<!-- Generator: Adobe Illustrator 19.0.0, SVG Export Plug-In . SVG Version: 6.00 Build 0)  -->
<svg version="1.1" id="Слой_1" xmlns="http://www.w3.org/2000/svg" xmlns:xlink="http://www.w3.org/1999/xlink" x="0px" y="0px"
	 viewBox="0 0 43 43" style="enable-background:new 0 0 43 43;" xml:space="preserve">
<style type="text/css">
	.st0{fill:none;}
</style>
<path id="icon_7_" class="st0" d="M43,24.2v-5.5l-4.6-0.4c-0.2-0.9-0.4-1.8-0.7-2.6l3.8-2.6l-2.8-4.8l-4.2,2C34,9.7,33.3,9,32.7,8.4
	l2-4.2l-4.8-2.8l-2.6,3.8c-0.9-0.3-1.7-0.5-2.6-0.7L24.2,0h-5.5l-0.4,4.6c-0.9,0.2-1.8,0.4-2.6,0.7l-2.6-3.8L8.4,4.3l2,4.2
	C9.7,9,9,9.7,8.4,10.3l-4.2-2l-2.8,4.8l3.8,2.6c-0.3,0.9-0.5,1.7-0.7,2.6L0,18.7l0,5.5l4.6,0.4c0.2,0.9,0.4,1.8,0.7,2.6l-3.8,2.6
	l2.8,4.8l4.2-2c0.6,0.7,1.2,1.3,1.9,1.9l-2,4.2l4.8,2.7l2.6-3.8c0.8,0.3,1.7,0.5,2.6,0.7l0.4,4.6h5.5l0.4-4.6
	c0.9-0.2,1.8-0.4,2.6-0.7l2.6,3.8l4.8-2.7l-2-4.2c0.7-0.6,1.3-1.2,1.9-1.9l4.2,2l2.8-4.8l-3.8-2.6c0.3-0.9,0.5-1.7,0.7-2.6L43,24.2z
	 M21.5,25.8c-2.4,0-4.3-1.9-4.3-4.3c0-2.4,1.9-4.3,4.3-4.3c2.4,0,4.3,1.9,4.3,4.3C25.8,23.9,23.9,25.8,21.5,25.8z"/>
</svg>
