<?xml version="1.0" encoding="UTF-8" ?>
<!DOCTYPE svg PUBLIC "-//W3C//DTD SVG 1.1//EN" "http://www.w3.org/Graphics/SVG/1.1/DTD/svg11.dtd">
<svg width="187pt" height="81pt" viewBox="0 0 187 81" version="1.1" xmlns="http://www.w3.org/2000/svg">
<g id="#ffffffff">
<path fill="#ffffff" opacity="1.00" d=" M 130.43 1.52 C 133.16 0.10 137.09 0.55 138.71 3.39 C 140.59 6.46 139.60 10.26 138.65 13.47 C 135.73 22.14 130.95 30.07 125.44 37.32 C 129.60 37.73 133.78 37.33 137.67 35.74 C 138.67 32.86 139.41 29.77 141.31 27.32 C 142.72 25.63 145.92 24.89 147.28 27.03 C 146.44 33.44 144.29 39.67 143.99 46.15 C 143.73 48.63 146.56 50.56 148.27 48.21 C 152.57 42.55 151.41 34.69 154.34 28.43 C 155.83 26.08 158.80 25.78 161.29 26.36 C 160.05 35.05 158.21 43.65 157.02 52.35 C 161.29 49.46 164.55 45.43 167.51 41.28 C 167.98 43.51 168.46 45.74 168.93 47.98 C 165.57 52.33 160.83 55.24 156.82 58.85 C 154.89 66.33 156.14 75.61 149.38 81.00 L 138.97 81.00 C 136.66 78.63 136.12 75.08 137.27 72.02 C 139.51 66.18 143.64 61.31 148.12 57.04 C 149.64 55.81 150.14 53.88 150.83 52.14 C 147.67 53.93 143.58 56.49 140.10 53.90 C 136.00 51.42 136.24 46.11 136.77 41.96 C 134.06 42.56 131.32 43.02 128.57 43.38 C 130.84 47.85 133.24 52.78 132.30 57.94 C 131.59 62.53 130.37 67.52 126.69 70.68 C 124.01 73.07 119.23 72.81 117.35 69.55 C 114.12 64.17 114.32 57.51 114.76 51.46 C 111.18 53.36 107.24 55.71 103.01 54.80 C 100.83 54.40 100.10 52.08 99.16 50.40 C 94.88 52.55 89.92 56.69 84.97 54.13 C 80.30 50.77 79.88 44.41 79.32 39.17 C 76.79 36.49 73.98 34.10 70.97 31.98 C 72.09 35.85 73.18 39.94 72.08 43.94 C 70.99 49.28 66.95 54.84 61.06 55.02 C 58.05 55.37 55.67 53.32 53.53 51.54 C 49.36 54.36 44.32 57.20 39.11 55.94 C 34.28 54.67 32.46 49.32 31.81 44.90 C 30.40 37.00 33.46 29.37 35.38 21.85 C 36.15 18.39 37.11 14.40 35.04 11.20 C 31.27 11.26 29.53 15.22 27.80 17.97 C 22.47 28.33 18.94 39.50 15.36 50.56 C 14.74 53.07 12.98 55.99 9.95 55.50 C 6.51 54.99 6.06 50.87 6.61 48.09 C 8.86 35.69 12.63 23.35 12.09 10.62 C 7.88 12.50 5.82 16.75 3.56 20.48 C 2.64 19.94 1.75 19.35 0.90 18.70 C 0.68 18.51 0.23 18.12 0.00 17.93 L 0.00 17.39 C 2.44 14.24 2.99 9.85 6.12 7.15 C 8.35 4.64 12.18 4.00 15.15 5.53 C 17.91 6.83 18.76 10.22 18.75 13.01 C 18.55 18.97 16.91 24.74 15.98 30.60 C 19.04 23.16 21.83 15.33 27.24 9.21 C 29.91 6.25 33.87 3.83 38.01 4.64 C 41.56 5.58 42.81 9.70 42.76 12.98 C 42.36 23.10 38.96 32.94 39.28 43.12 C 39.52 45.33 39.76 48.14 42.01 49.28 C 45.55 50.26 48.61 47.50 51.36 45.70 C 51.03 40.83 51.21 35.46 54.34 31.43 C 57.63 26.88 63.91 25.23 69.19 26.79 C 73.23 27.80 76.44 30.61 79.23 33.57 C 79.41 31.64 79.59 29.70 79.78 27.77 C 76.69 26.81 71.95 27.82 71.21 23.64 C 74.28 22.92 77.44 22.95 80.57 22.96 C 82.27 16.07 83.96 8.35 89.52 3.47 C 92.52 0.87 96.69 3.71 97.41 7.05 C 99.45 13.02 95.84 18.79 92.82 23.68 C 96.04 23.73 99.27 23.90 102.48 24.21 C 102.45 25.52 102.36 26.81 102.18 28.11 C 98.25 29.54 93.91 28.28 89.82 28.85 C 88.29 29.97 87.14 31.58 86.23 33.23 C 85.82 37.14 85.49 41.13 85.97 45.04 C 86.20 47.05 87.94 48.63 89.99 48.56 C 93.63 47.89 96.88 45.86 99.71 43.55 C 101.55 38.52 102.21 33.07 104.38 28.14 C 105.95 26.07 108.96 26.39 111.26 26.26 C 110.97 34.20 105.87 41.60 107.49 49.66 C 110.44 48.98 112.95 47.30 115.28 45.44 C 116.40 34.48 117.94 23.39 121.89 13.04 C 123.74 8.64 125.94 3.77 130.43 1.52 M 130.47 8.40 C 127.06 15.45 124.88 23.08 124.22 30.89 C 127.86 24.51 132.29 18.47 134.60 11.42 C 135.14 9.78 135.41 7.78 134.00 6.49 C 132.49 6.30 130.88 6.77 130.47 8.40 M 91.11 9.08 C 87.87 13.22 87.26 18.74 86.12 23.71 C 89.89 22.32 90.71 17.76 92.44 14.54 C 93.22 12.84 94.29 8.32 91.11 9.08 M 63.06 32.05 C 58.24 34.39 57.03 41.12 58.47 45.90 C 58.25 48.28 60.91 49.92 63.03 49.07 C 66.39 46.07 67.08 41.17 66.98 36.91 C 66.85 34.84 65.75 31.43 63.06 32.05 M 122.19 40.12 C 121.13 47.72 120.51 55.47 121.42 63.12 C 121.50 64.55 122.23 65.80 122.82 67.07 C 123.87 66.02 125.18 65.04 125.40 63.46 C 126.55 58.03 125.95 52.42 125.27 46.97 C 125.00 44.41 123.58 42.22 122.19 40.12 M 142.37 75.17 C 142.58 77.59 145.75 76.50 146.48 75.07 C 148.71 71.26 149.47 66.76 149.78 62.41 C 146.15 65.82 143.53 70.33 142.37 75.17 Z" />
<path fill="#ffffff" opacity="1.00" d=" M 108.37 13.41 C 111.22 12.25 115.95 13.16 116.04 16.89 C 116.52 21.74 110.00 24.24 106.56 21.38 C 104.05 19.01 105.36 14.67 108.37 13.41 Z" />
</g>
<g id="#30ca71fc">
<path fill="#30ca71" opacity="1.00" d=" M 174.37 46.50 C 177.31 44.23 183.20 45.62 182.79 50.02 C 182.97 54.64 176.50 56.68 173.45 53.64 C 171.76 51.57 172.28 48.11 174.37 46.50 Z" />
</g>
</svg>
