<?xml version="1.0" encoding="UTF-8" ?>
<!DOCTYPE svg PUBLIC "-//W3C//DTD SVG 1.1//EN" "http://www.w3.org/Graphics/SVG/1.1/DTD/svg11.dtd">
<svg width="183pt" height="83pt" viewBox="0 0 183 83" version="1.1" xmlns="http://www.w3.org/2000/svg">
<g id="#ffffffff">
<path fill="#ffffff" opacity="1.00" d=" M 121.88 11.85 C 123.93 7.28 126.67 1.97 132.04 0.84 C 135.80 -0.14 139.40 3.26 139.29 7.00 C 139.22 12.00 137.07 16.64 135.05 21.11 C 132.19 26.82 128.87 32.32 124.90 37.33 C 129.58 37.92 134.36 37.24 138.52 34.93 C 139.72 31.43 140.58 26.30 145.01 25.64 C 145.74 25.91 147.21 26.43 147.94 26.69 C 146.80 33.14 144.97 39.51 144.44 46.06 C 144.20 48.25 146.73 50.65 148.51 48.48 C 152.53 43.68 152.10 36.89 153.84 31.13 C 154.08 27.41 158.49 24.73 161.79 26.71 C 160.37 35.25 158.84 43.77 157.44 52.32 C 161.81 49.56 165.01 45.45 168.00 41.31 C 168.45 43.50 169.07 45.66 169.32 47.88 C 166.24 52.23 161.74 55.24 157.53 58.38 C 155.31 64.63 156.77 72.04 152.77 77.74 C 149.95 83.09 140.73 84.21 137.73 78.52 C 135.79 72.74 139.92 67.43 143.06 62.98 C 145.61 59.18 150.55 56.92 151.18 52.03 C 148.40 53.88 144.85 56.17 141.45 54.38 C 136.52 52.10 136.20 45.62 137.80 41.11 C 134.76 42.66 131.34 42.91 128.03 43.38 C 130.40 47.89 132.81 52.93 131.75 58.17 C 130.97 63.02 129.61 68.54 125.20 71.36 C 122.06 73.36 117.58 72.02 116.23 68.49 C 113.94 63.19 113.27 56.91 114.69 51.30 C 111.43 53.73 107.17 55.73 103.05 54.69 C 100.94 54.24 100.20 52.08 99.62 50.27 C 95.37 52.70 90.01 56.90 85.08 53.87 C 80.95 50.53 80.43 44.70 79.88 39.79 C 76.97 37.02 74.09 34.18 70.63 32.09 C 73.57 38.88 72.58 47.64 66.83 52.65 C 63.03 56.07 56.51 55.78 53.54 51.41 C 49.42 54.43 44.16 57.29 38.91 55.87 C 33.55 54.21 32.02 47.86 31.59 42.93 C 30.56 33.60 35.67 25.15 36.30 16.01 C 36.26 14.21 36.16 10.51 33.42 11.39 C 30.53 12.72 29.12 15.84 27.54 18.41 C 22.18 29.10 18.62 40.57 14.89 51.89 C 14.25 54.43 11.59 56.26 9.00 55.29 C 6.61 54.16 6.23 51.30 6.53 48.96 C 8.43 36.32 12.95 23.77 11.88 10.88 C 7.77 12.45 5.81 16.65 3.90 20.29 C 2.46 19.88 0.95 19.15 0.78 17.46 C 1.98 13.07 3.86 8.43 7.79 5.80 C 11.58 3.19 17.81 5.31 18.43 10.12 C 19.47 17.16 16.75 24.03 15.98 30.97 C 18.74 23.54 21.64 15.94 26.75 9.76 C 29.46 6.52 33.55 3.89 37.95 4.59 C 41.49 5.58 42.81 9.64 42.75 12.95 C 42.37 23.10 38.93 32.95 39.29 43.16 C 39.48 45.38 39.80 48.14 42.01 49.30 C 45.52 50.30 48.51 47.53 51.26 45.79 C 50.51 40.36 51.19 34.20 55.21 30.12 C 59.42 25.71 66.54 25.21 71.82 27.89 C 75.00 29.32 77.40 31.91 79.69 34.45 C 79.84 32.22 80.06 29.99 80.29 27.76 C 77.78 27.26 75.20 26.99 72.75 26.24 C 72.46 25.37 72.22 24.48 72.03 23.57 C 74.99 22.80 78.06 23.00 81.08 22.99 C 82.30 17.22 84.01 11.41 87.24 6.42 C 88.73 4.30 91.01 1.88 93.89 2.58 C 96.98 3.64 98.34 7.08 98.49 10.10 C 98.72 15.17 95.82 19.59 93.25 23.71 C 96.16 23.72 99.09 23.75 101.98 24.14 C 104.04 24.90 102.78 27.44 101.96 28.74 C 97.99 28.72 94.03 28.74 90.07 28.73 C 88.86 30.25 87.67 31.78 86.50 33.33 C 86.86 38.00 85.00 43.25 87.53 47.50 C 92.00 50.37 96.59 45.78 100.37 43.64 C 101.31 38.24 102.76 32.88 104.80 27.79 C 106.51 26.54 110.94 24.86 111.51 27.86 C 110.41 34.32 107.52 40.44 107.25 47.06 C 107.12 48.21 107.60 49.01 108.70 49.46 C 110.93 48.94 112.73 47.47 114.59 46.22 C 116.02 34.60 117.37 22.75 121.88 11.85 M 130.16 8.02 C 126.86 15.00 124.22 22.51 124.00 30.30 C 127.98 23.41 133.20 16.82 134.61 8.82 C 134.91 6.02 130.93 5.62 130.16 8.02 M 91.36 9.39 C 88.33 13.46 87.80 18.84 86.56 23.64 C 87.03 23.47 87.99 23.12 88.46 22.94 C 90.77 19.64 92.72 15.93 93.66 11.99 C 94.19 10.57 93.13 7.76 91.36 9.39 M 62.20 32.21 C 59.05 34.06 58.22 38.00 57.50 41.30 C 58.20 43.45 58.57 45.69 58.51 47.95 C 59.85 48.73 61.26 49.77 62.88 49.07 C 66.30 45.71 67.03 40.50 66.61 35.93 C 66.40 33.84 64.64 31.05 62.20 32.21 M 120.90 63.00 C 121.22 64.21 120.99 66.60 122.83 66.58 C 125.51 64.72 125.33 60.96 125.55 58.05 C 125.36 51.96 125.69 45.19 121.74 40.10 C 120.61 47.66 119.95 55.38 120.90 63.00 M 142.74 76.47 C 144.23 76.45 146.16 76.61 147.00 75.06 C 149.20 71.23 149.93 66.78 150.31 62.44 C 146.35 66.10 143.44 71.08 142.74 76.47 Z" />
<path fill="#ffffff" opacity="1.00" d=" M 106.78 14.81 C 109.55 11.32 117.45 12.84 116.23 18.14 C 115.50 22.60 109.95 23.44 106.53 21.54 C 105.48 19.43 104.87 16.66 106.78 14.81 Z" />
</g>
<g id="#31ca72fb">
<path fill="#31ca72" opacity="1.00" d=" M 174.44 46.48 C 177.36 44.27 183.24 45.60 182.79 50.03 C 183.00 54.70 176.43 56.67 173.44 53.60 C 171.77 51.52 172.28 48.05 174.44 46.48 Z" />
</g>
</svg>
