<?xml version="1.0" encoding="utf-8"?>
<!-- Generator: Adobe Illustrator 19.0.0, SVG Export Plug-In . SVG Version: 6.00 Build 0)  -->
<svg version="1.1" id="Слой_1" xmlns="http://www.w3.org/2000/svg" xmlns:xlink="http://www.w3.org/1999/xlink" x="0px" y="0px"
	 viewBox="0 0 595.3 841.9" style="enable-background:new 0 0 595.3 841.9;" xml:space="preserve">
<style type="text/css">
	.st0{fill-rule:evenodd;clip-rule:evenodd;fill:#FFFFFF;}
</style>
<g id="icon_7_">
	<g id="XMLID_29_">
		<path id="XMLID_30_" class="st0" d="M319,423.2v-5.5l-4.6-0.4c-0.2-0.9-0.4-1.8-0.7-2.6l3.8-2.6l-2.8-4.8l-4.2,2
			c-0.6-0.7-1.2-1.3-1.9-1.9l2-4.2l-4.8-2.8l-2.6,3.8c-0.9-0.3-1.7-0.5-2.6-0.7l-0.4-4.6h-5.5l-0.4,4.6c-0.9,0.2-1.8,0.4-2.6,0.7
			l-2.6-3.8l-4.8,2.7l2,4.2c-0.7,0.6-1.3,1.2-1.9,1.9l-4.2-2l-2.8,4.8l3.8,2.6c-0.3,0.9-0.5,1.7-0.7,2.6l-4.6,0.4l0,5.5l4.6,0.4
			c0.2,0.9,0.4,1.8,0.7,2.6l-3.8,2.6l2.8,4.8l4.2-2c0.6,0.7,1.2,1.3,1.9,1.9l-2,4.2l4.8,2.7l2.6-3.8c0.8,0.3,1.7,0.5,2.6,0.7
			l0.4,4.6h5.5l0.4-4.6c0.9-0.2,1.8-0.4,2.6-0.7l2.6,3.8l4.8-2.7l-2-4.2c0.7-0.6,1.3-1.2,1.9-1.9l4.2,2l2.8-4.8l-3.8-2.6
			c0.3-0.9,0.5-1.7,0.7-2.6L319,423.2z M297.5,424.8c-2.4,0-4.3-1.9-4.3-4.3c0-2.4,1.9-4.3,4.3-4.3c2.4,0,4.3,1.9,4.3,4.3
			C301.8,422.9,299.9,424.8,297.5,424.8z"/>
	</g>
</g>
</svg>
